<svg xmlns="http://www.w3.org/2000/svg" xmlns:xlink="http://www.w3.org/1999/xlink" width="500" zoomAndPan="magnify" viewBox="0 0 375 374.999991" height="500" preserveAspectRatio="xMidYMid meet" version="1.0"><path fill="#ffffff" d="M 295.71875 79.648438 C 294.929688 77.890625 294.394531 75.957031 293.308594 74.40625 C 280.988281 56.796875 263.828125 47.039062 242.8125 43.695312 C 240.945312 43.402344 238.957031 43.597656 237.046875 43.761719 C 231.617188 44.226562 226.203125 44.890625 220.761719 45.269531 C 218.503906 45.421875 217.027344 44.453125 217.875 41.71875 C 218.289062 40.375 217.222656 39.65625 216.203125 39.09375 C 209.464844 35.421875 202.082031 34.628906 194.632812 34.707031 C 180.945312 34.847656 167.355469 36.097656 154.164062 40.070312 C 153.796875 40.179688 151.625 39.460938 153.167969 41.285156 C 153.371094 41.523438 153.9375 41.425781 154.273438 41.589844 C 154.945312 41.925781 155.824219 42.1875 156.164062 42.75 C 156.464844 43.273438 156.402344 44.292969 156.074219 44.835938 C 155.726562 45.421875 154.914062 45.996094 154.242188 46.09375 C 139.085938 48.144531 126.308594 55.550781 113.933594 63.886719 C 107.117188 68.476562 100.886719 73.765625 95.058594 79.574219 C 87.644531 86.953125 82.886719 95.84375 80.957031 106.003906 C 79.914062 111.519531 78.230469 116.492188 74.964844 121.019531 C 67.558594 131.320312 65.824219 143.195312 65.648438 155.460938 C 65.59375 159.414062 66.539062 163.148438 68.417969 166.699219 C 70.046875 169.769531 71.402344 172.996094 72.71875 176.21875 C 72.890625 176.652344 72.238281 177.78125 71.707031 178.03125 C 71.152344 178.292969 70.046875 178.128906 69.589844 177.707031 C 60.796875 169.617188 58.082031 159.1875 59.851562 147.941406 C 61.601562 136.800781 64.164062 125.675781 71.21875 116.328125 C 74.386719 112.136719 75.117188 107.027344 76.722656 102.25 C 77.839844 98.9375 78.414062 95.433594 79.71875 92.195312 C 80.871094 89.34375 82.269531 86.390625 84.265625 84.097656 C 91.191406 76.164062 98.378906 68.519531 107.085938 62.378906 C 115.671875 56.320312 124.78125 51.042969 133.019531 44.433594 C 139.75 39.039062 147.726562 36.019531 156.171875 33.71875 C 167.59375 30.613281 179.21875 29.484375 190.867188 28.78125 C 199.433594 28.257812 207.996094 29.667969 216.160156 32.71875 C 218.722656 33.675781 221.304688 34.597656 223.757812 35.792969 C 229.164062 38.453125 234.875 39.375 240.8125 38.996094 C 249.640625 38.417969 257.78125 40.816406 265.695312 44.410156 C 267.800781 45.367188 270.070312 45.996094 272.261719 46.777344 L 272.078125 46.613281 C 278.058594 50.96875 284.464844 54.757812 289.683594 60.121094 C 291.355469 61.84375 293.039062 61.226562 294.070312 58.730469 C 294.667969 57.285156 294.992188 55.710938 295.742188 54.367188 C 297.054688 51.988281 296.695312 50.023438 295.015625 47.972656 C 289.554688 41.296875 289.976562 33.554688 291.257812 25.71875 C 291.378906 25.011719 291.921875 24.253906 292.484375 23.796875 C 293.027344 23.363281 293.90625 23.035156 294.558594 23.144531 C 295.1875 23.253906 296.15625 23.949219 296.199219 24.4375 C 296.328125 26.359375 296.164062 28.300781 296.089844 30.234375 C 295.949219 34.132812 295.589844 38.050781 297.132812 41.785156 C 297.414062 42.46875 298.140625 43.53125 298.554688 43.476562 C 299.542969 43.371094 300.722656 42.925781 301.34375 42.207031 C 303.1875 40.046875 303.675781 37.648438 303.222656 34.640625 C 302.417969 29.269531 302.191406 23.796875 302.082031 18.347656 C 302.050781 16.523438 303.015625 14.625 303.773438 12.867188 C 304.003906 12.34375 305.023438 12.09375 305.730469 11.878906 C 306.597656 11.617188 308.183594 12.917969 308.148438 13.875 C 308.007812 17.371094 307.683594 20.867188 307.671875 24.363281 C 307.671875 26.230469 307.488281 28.976562 308.5625 29.777344 C 310.320312 31.113281 312.015625 28.953125 313.382812 27.640625 C 321.101562 20.226562 330.261719 15.1875 339.988281 10.910156 C 343.710938 9.273438 346.699219 9.988281 349.964844 11.660156 C 360.917969 17.273438 366.25 26.769531 369.003906 38.277344 C 370.980469 46.515625 370.785156 54.386719 367.660156 62.367188 C 365.402344 68.140625 363.839844 74.113281 363.761719 80.539062 C 363.675781 88.34375 359.429688 94.628906 353.9375 99.859375 C 350.28125 103.335938 346.316406 106.570312 341.445312 108.40625 C 338.523438 109.5 335.667969 110.78125 332.800781 112.007812 C 331.238281 112.679688 330.578125 114.199219 331.183594 115.828125 C 332.140625 118.378906 333.105469 120.929688 334.171875 123.449219 C 337.242188 130.703125 338.71875 138.34375 339.738281 146.082031 C 340.359375 150.75 340.183594 155.320312 338.882812 159.980469 C 336.242188 169.347656 334.484375 178.941406 329.828125 187.691406 C 327.832031 191.460938 327.050781 195.726562 326.757812 200.101562 C 326.160156 209.1875 323.121094 217.566406 319.070312 225.699219 C 308.410156 247.105469 307.945312 247.929688 291.214844 265.730469 C 289.078125 268.011719 286.9375 270.28125 284.679688 272.441406 C 281.011719 275.957031 279.632812 279.574219 281.238281 284.957031 C 283.226562 291.621094 284.0625 298.625 283.757812 305.765625 C 283.257812 317.304688 280.71875 328.117188 274.550781 337.996094 C 273.324219 339.972656 272.230469 342.078125 271.449219 344.261719 C 271.15625 345.074219 271.652344 346.867188 272.292969 347.191406 C 276.460938 349.296875 280.738281 351.175781 285.027344 353.011719 C 293.265625 356.527344 301.34375 360.621094 309.863281 363.257812 C 319.101562 366.125 328.332031 369.140625 338.296875 369.574219 C 349.976562 370.085938 361.527344 372.082031 372.511719 376.695312 C 379.675781 379.703125 387.125 382.070312 394.527344 384.46875 C 396.6875 385.175781 399.128906 385.261719 401.429688 385.230469 C 411.785156 385.109375 419.289062 390.058594 424.878906 398.308594 C 426.84375 401.199219 428.308594 404.421875 430.035156 407.472656 C 438.457031 422.464844 445.558594 438.019531 450.691406 454.453125 C 454.175781 465.613281 457.75 476.761719 461.484375 487.84375 C 465.226562 498.929688 468.757812 510.109375 473.230469 520.902344 C 479.730469 536.542969 483.378906 552.847656 485.832031 569.46875 C 487.082031 577.945312 487.816406 586.5 488.503906 595.042969 C 488.839844 599.320312 488.316406 603.53125 486.234375 607.539062 C 484.625 610.632812 483.933594 614.179688 482.433594 617.339844 C 478.894531 624.832031 476.472656 632.449219 476.226562 640.886719 C 476.074219 645.878906 474.574219 650.871094 473.316406 655.769531 C 471.925781 661.152344 471.273438 666.460938 472.5 671.953125 C 473.28125 675.472656 472.914062 678.933594 471.4375 682.253906 C 470.472656 684.449219 468.148438 685.988281 465.867188 685.652344 C 439.238281 681.746094 413.96875 687.847656 389 696.074219 C 388.371094 696.28125 387.914062 697.039062 387.417969 697.582031 C 386.765625 698.3125 388.046875 699.429688 389.738281 699.484375 C 393.246094 699.59375 396.761719 699.667969 400.28125 699.679688 C 406.53125 699.691406 412.785156 699.59375 419.027344 699.65625 C 423.347656 699.699219 427.625 700.179688 431.414062 702.511719 C 431.902344 702.804688 432.28125 703.824219 432.164062 704.402344 C 432.042969 705.042969 431.359375 705.628906 430.816406 706.125 C 430.566406 706.355469 430.078125 706.355469 429.699219 706.398438 C 429.320312 706.441406 428.917969 706.496094 428.546875 706.429688 C 415.78125 704.074219 402.851562 705.042969 390 704.757812 C 381.023438 704.5625 372.035156 704.824219 363.058594 704.867188 C 361.101562 704.867188 359.128906 704.996094 357.207031 704.757812 C 343.996094 703.140625 330.71875 703.140625 317.453125 702.871094 C 311.242188 702.75 304.96875 702.96875 298.835938 701.21875 C 296.699219 700.613281 294.199219 701.265625 291.878906 701.273438 C 283.257812 701.339844 274.683594 700.894531 266.617188 697.453125 C 260.15625 694.695312 252.851562 694.382812 246.839844 690.429688 C 246.609375 690.277344 246.566406 689.691406 246.609375 689.324219 C 246.644531 689.019531 246.859375 688.59375 247.121094 688.476562 C 247.792969 688.140625 248.585938 687.640625 249.25 687.75 C 253.082031 688.367188 257.011719 688.746094 260.667969 689.929688 C 269.992188 692.949219 279.261719 695.933594 289.261719 695.238281 C 305.902344 697.972656 322.695312 697.453125 339.46875 697.5625 C 346.492188 697.605469 353.558594 697.789062 360.496094 698.746094 C 365.835938 699.484375 370.472656 698.648438 375.117188 696.226562 C 388.371094 689.324219 402.441406 684.589844 417.105469 682.007812 C 430.546875 679.628906 444.113281 677.730469 457.855469 678.628906 C 466.453125 679.195312 466.628906 676.546875 466 669.902344 C 465.371094 663.160156 465.847656 656.820312 468.277344 650.40625 C 469.765625 646.464844 470.320312 642.046875 470.589844 637.804688 C 471.113281 629.855469 473.097656 622.332031 476.941406 615.472656 C 481.933594 606.539062 483.269531 597.117188 482.019531 587.183594 C 478.875 562.367188 474.226562 537.964844 464.347656 514.714844 C 459.929688 504.335938 456.609375 493.445312 453.363281 482.613281 C 447.640625 463.539062 440.933594 444.878906 433.226562 426.511719 C 429.113281 416.722656 423.824219 407.710938 417.964844 398.941406 C 414.695312 394.054688 410.277344 390.894531 404.449219 390.875 C 393.167969 390.832031 383.148438 386.066406 372.925781 382.546875 C 362.480469 378.953125 351.898438 376.078125 341.042969 375.621094 C 324.195312 374.90625 309.039062 369.152344 293.972656 362.585938 C 292.550781 361.964844 291.171875 361.195312 289.695312 360.773438 C 289.273438 360.652344 288.046875 361.519531 288.078125 361.847656 C 288.394531 364.941406 289.085938 367.992188 289.292969 371.085938 C 289.542969 375.023438 289.109375 379.019531 287.023438 382.417969 C 283.996094 387.367188 280.640625 392.144531 277.167969 396.8125 C 276.355469 397.910156 274.542969 398.289062 273.152344 398.90625 C 272.878906 399.027344 272.261719 398.886719 272.097656 398.65625 C 271.675781 398.070312 270.980469 397.179688 271.164062 396.746094 C 271.925781 394.988281 272.628906 392.96875 273.988281 391.742188 C 278.90625 387.324219 280.535156 381.191406 282.757812 375.4375 C 284.214844 371.679688 283.734375 367.707031 281.511719 364.179688 C 279.839844 361.542969 278.089844 358.960938 276.234375 356.453125 C 275.898438 355.996094 274.738281 355.714844 274.25 355.953125 C 273.726562 356.203125 273.238281 357.199219 273.292969 357.820312 C 273.464844 360.140625 273.945312 362.433594 274.171875 364.746094 C 274.390625 367.058594 274.519531 369.390625 274.550781 371.714844 C 274.574219 373.59375 272.859375 375.46875 271.882812 374.785156 C 271.011719 374.179688 270.015625 373.332031 269.722656 372.386719 C 268.34375 367.914062 267.09375 363.398438 265.964844 358.863281 C 264.488281 352.921875 264.46875 351.5 258.976562 356.0625 C 255.988281 358.535156 252.679688 360.683594 249.300781 362.617188 C 242.257812 366.65625 235.148438 366.425781 228.222656 362.171875 C 227.613281 361.792969 227.046875 361.042969 226.851562 360.347656 C 226.679688 359.730469 226.960938 358.925781 227.199219 358.265625 C 227.308594 357.972656 227.796875 357.613281 228.101562 357.625 C 229.242188 357.644531 230.578125 357.472656 231.5 357.980469 C 237.980469 361.5 243.59375 358.730469 249.160156 355.703125 C 250.507812 354.964844 251.613281 353.78125 252.808594 352.78125 C 262.535156 344.609375 262.632812 344.46875 262.742188 331.949219 C 262.816406 322.972656 262.785156 313.996094 262.839844 305.019531 C 262.859375 301.5 262.871094 297.941406 264.609375 294.75 C 265.117188 293.804688 266.007812 292.535156 267.324219 293.347656 C 268.179688 293.878906 269.003906 294.988281 269.191406 295.953125 C 269.460938 297.441406 269.136719 299.046875 269.113281 300.601562 C 269.015625 309.546875 268.90625 318.488281 268.917969 327.433594 C 268.917969 328.542969 269.570312 329.660156 270.015625 330.734375 C 270.144531 331.039062 270.589844 331.34375 270.914062 331.375 C 271.15625 331.398438 271.546875 331.039062 271.695312 330.757812 C 274.355469 325.925781 275.984375 320.824219 276.558594 315.265625 C 277.503906 306.265625 277.070312 297.355469 275.703125 288.453125 C 275.269531 285.609375 273.335938 284.914062 270.65625 286.414062 C 270.320312 286.597656 270.046875 286.902344 269.742188 287.148438 C 267.226562 289.136719 264.804688 289.160156 262.4375 286.847656 C 261.613281 286.03125 260.734375 285.078125 259.691406 284.742188 C 258.769531 284.4375 257.0625 284.492188 256.617188 285.085938 C 251.558594 291.6875 244.808594 296.269531 238.132812 300.949219 C 229.164062 307.222656 219.667969 312.519531 209.941406 317.589844 C 197.140625 324.265625 184.507812 331.210938 171.207031 336.867188 C 168.167969 338.160156 168.136719 338.714844 168.472656 342.339844 C 169.710938 355.519531 172.078125 368.578125 171.578125 381.917969 C 171.382812 387.097656 170.144531 391.90625 168.515625 396.683594 C 168.34375 397.191406 167.257812 397.703125 166.636719 397.660156 C 166.128906 397.617188 165.335938 396.78125 165.292969 396.238281 C 165.195312 395.109375 165.5625 393.933594 165.628906 392.785156 C 165.824219 388.898438 166.019531 385.011719 166.0625 381.125 C 166.0625 380.636719 165.207031 379.78125 164.695312 379.738281 C 164.097656 379.691406 163.175781 380.203125 162.847656 380.746094 C 158.484375 388.226562 155.75 396.378906 153.742188 404.738281 C 150.765625 417.132812 159.117188 428.824219 170.101562 432.179688 C 172.335938 432.863281 174.660156 433.265625 176.960938 433.675781 C 191.691406 436.273438 206.367188 437.226562 220.882812 432.375 C 228.6875 429.769531 236.089844 426.632812 242.332031 420.933594 C 249.226562 414.625 256.585938 408.816406 263.761719 402.816406 C 264.347656 402.328125 265.054688 401.804688 265.769531 401.695312 C 266.433594 401.589844 267.34375 401.816406 267.855469 402.238281 C 268.375 402.675781 268.949219 403.640625 268.808594 404.183594 C 268.515625 405.269531 267.917969 406.386719 267.136719 407.199219 C 258.746094 415.972656 249.347656 423.570312 239.671875 430.867188 C 234.550781 434.730469 228.265625 435.816406 222.390625 437.824219 C 218.351562 439.203125 214.097656 439.917969 209.917969 440.886719 C 202.613281 442.566406 195.308594 443.164062 187.851562 441.675781 C 183.648438 440.839844 179.304688 440.796875 175.074219 440.101562 C 162.546875 438.039062 153.644531 431.410156 148.921875 419.371094 C 147.132812 414.808594 146.804688 410.292969 147.835938 405.605469 C 150.367188 394.128906 153.253906 382.796875 160.785156 373.308594 C 161.992188 371.789062 163.046875 370.128906 163.96875 368.425781 C 164.25 367.902344 164.109375 366.839844 163.730469 366.382812 C 163.316406 365.894531 162.261719 365.441406 161.71875 365.625 C 157.324219 367.1875 152.894531 368.683594 148.660156 370.628906 C 144.035156 372.757812 139.566406 375.167969 134.332031 375.4375 C 133.941406 375.460938 133.519531 375.46875 133.183594 375.632812 C 122.140625 380.8125 110.460938 380.453125 98.714844 379.683594 C 97.164062 379.585938 95.566406 379.824219 94.035156 379.636719 C 83.128906 378.28125 75.375 383.960938 68.375 391.179688 C 67.0625 392.535156 66.234375 394.402344 65.269531 396.085938 C 55.96875 412.378906 47.890625 429.183594 41.875 447.027344 C 38.152344 458.078125 33.074219 468.6875 28.675781 479.519531 C 23.976562 491.058594 19.425781 502.621094 16.191406 514.722656 C 13.921875 523.222656 15.050781 530.910156 18.253906 538.628906 C 20.046875 542.949219 22.207031 547.105469 24.0625 551.394531 C 24.679688 552.835938 24.800781 554.648438 23.207031 555.496094 C 22.46875 555.886719 21.132812 555.191406 20.066406 554.953125 C 19.339844 554.792969 18.515625 554.238281 17.949219 554.445312 C 17.375 554.660156 16.855469 555.539062 16.679688 556.214844 C 16.507812 556.898438 16.59375 558.222656 16.917969 558.339844 C 19.070312 559.175781 21.304688 560.261719 23.542969 560.347656 C 39.140625 560.96875 54.738281 561.371094 70.339844 561.816406 C 71.5 561.847656 72.78125 561.890625 73.792969 561.445312 C 74.714844 561.03125 75.636719 560.089844 76.015625 559.15625 C 76.429688 558.132812 76.429688 556.808594 76.222656 555.691406 C 74.78125 547.964844 75.441406 540.136719 75.0625 532.375 C 74.105469 512.8125 75.765625 493.402344 77.589844 473.984375 C 77.992188 469.75 79.121094 465.570312 80.042969 461.390625 C 80.152344 460.890625 81.085938 460.554688 81.683594 460.230469 C 81.738281 460.195312 82.292969 460.78125 82.34375 461.121094 C 82.585938 462.648438 82.933594 464.214844 82.855469 465.742188 C 82.378906 475.46875 81.683594 485.195312 81.304688 494.933594 C 80.945312 503.902344 80.707031 512.867188 80.761719 521.835938 C 80.804688 528.8125 80.71875 535.785156 81.867188 542.785156 C 82.800781 548.496094 82.238281 554.445312 82.324219 560.285156 C 82.355469 562.238281 83.203125 563.367188 84.917969 563.421875 C 89.597656 563.574219 94.285156 563.636719 98.976562 563.769531 C 102.101562 563.855469 105.238281 563.824219 108.34375 564.148438 C 118.265625 565.222656 124.769531 570.683594 127.992188 580.03125 C 128.871094 582.59375 129.554688 585.261719 130.035156 587.933594 C 131.335938 595.226562 132.617188 602.523438 133.671875 609.851562 C 135.65625 623.734375 137.40625 637.660156 139.414062 651.546875 C 140.867188 661.574219 142.550781 671.5625 144.199219 681.5625 C 144.460938 683.125 145.210938 684.535156 147.035156 684.851562 C 153.925781 686.023438 160.917969 686.78125 167.703125 688.421875 C 175.398438 690.277344 183.203125 690.0625 190.964844 690.636719 C 196.414062 691.046875 201.90625 691.113281 207.3125 691.832031 C 215.226562 692.871094 222.859375 692.523438 230.304688 689.355469 C 232.390625 688.464844 234.777344 688.128906 237.058594 687.933594 C 237.871094 687.855469 238.785156 688.933594 239.652344 689.472656 C 239.152344 690.015625 238.761719 690.734375 238.144531 691.046875 C 236.070312 692.125 233.921875 693.078125 231.792969 694.042969 C 224.519531 697.332031 216.929688 699.015625 209.019531 697.433594 C 202.046875 696.042969 195.015625 695.859375 188.023438 695.921875 C 177.386719 696.019531 167.039062 694.390625 156.738281 692.089844 C 154.847656 691.667969 152.90625 691.417969 150.972656 691.253906 C 148.207031 691.027344 146.273438 692.667969 146.230469 695.171875 C 146.207031 696.738281 146.132812 698.3125 146.347656 699.851562 C 148.695312 716.046875 151.070312 732.246094 153.480469 748.441406 C 153.96875 751.742188 155.554688 753.128906 158.898438 753.542969 C 172.078125 755.171875 185.34375 755.269531 198.597656 755.59375 C 199.160156 755.605469 199.738281 755.074219 200.3125 754.792969 C 199.671875 754.367188 199.085938 753.738281 198.390625 753.542969 C 187.132812 750.460938 176.355469 745.761719 164.738281 743.859375 C 162.847656 743.554688 161.027344 742.710938 159.277344 741.875 C 158.746094 741.625 158.507812 740.613281 158.269531 739.910156 C 157.976562 739.074219 159.246094 737.585938 160.265625 737.5 C 161.425781 737.402344 162.621094 737.121094 163.738281 737.304688 C 165.648438 737.617188 167.527344 738.183594 169.394531 738.726562 C 180.238281 741.863281 191.0625 745.097656 201.941406 748.125 C 206.835938 749.484375 211.828125 750.308594 216.996094 749.59375 C 220.089844 749.167969 223.226562 748.984375 226.34375 748.898438 C 230 748.800781 233.214844 747.628906 236.15625 745.554688 C 237.4375 744.652344 238.75 743.804688 240 742.871094 C 244.613281 739.429688 249.683594 738.3125 255.445312 738.886719 C 264.425781 739.777344 273.21875 741.253906 281.671875 744.488281 C 284.582031 745.597656 287.632812 746.324219 290.617188 747.226562 C 311.882812 753.695312 333.183594 760.035156 354.394531 766.6875 C 365.976562 770.324219 377.875 772.367188 389.761719 774.601562 C 407.183594 777.882812 424.746094 777.152344 442.3125 776.761719 C 443.875 776.730469 445.4375 776.621094 446.980469 776.394531 C 456.109375 775.015625 461.492188 769.316406 464.207031 760.902344 C 465.152344 757.972656 465.695312 754.792969 465.769531 751.707031 C 466 741.960938 466.53125 732.15625 465.769531 722.464844 C 465.074219 713.464844 466.128906 704.574219 465.847656 695.628906 C 465.8125 694.5 466.171875 693.296875 466.640625 692.253906 C 466.890625 691.6875 467.726562 691.339844 468.363281 691.015625 C 468.484375 690.960938 469.09375 691.460938 469.167969 691.777344 C 469.894531 695.171875 471.046875 698.582031 471.15625 702.011719 C 471.6875 719.164062 472.695312 736.316406 471.804688 753.488281 C 471.71875 755.050781 471.558594 756.617188 471.609375 758.167969 C 471.992188 768.621094 458.488281 782.210938 447.175781 782.550781 C 432.75 782.984375 418.320312 784.273438 403.9375 782.601562 C 386.894531 780.617188 369.960938 777.988281 353.558594 772.5625 C 342.453125 768.894531 331.152344 765.800781 319.90625 762.574219 C 316.214844 761.523438 315.683594 762.019531 314.425781 766.34375 C 314.207031 767.078125 314.25 767.90625 314.023438 768.644531 C 313.175781 771.445312 311.320312 773.507812 308.648438 774.449219 C 304.980469 775.742188 301.214844 776.804688 297.414062 777.664062 C 275.722656 782.558594 253.894531 786.890625 232.347656 792.351562 C 213.054688 797.238281 193.527344 801.070312 174.246094 805.964844 C 172.011719 806.527344 169.667969 806.765625 167.355469 806.929688 C 166.824219 806.964844 165.941406 806.160156 165.746094 805.5625 C 165.5625 805 165.855469 803.769531 166.28125 803.574219 C 168.722656 802.445312 171.199219 801.242188 173.792969 800.589844 C 188.554688 796.921875 203.351562 793.339844 218.15625 789.855469 C 229.925781 787.085938 241.78125 784.675781 253.515625 781.832031 C 270.558594 777.695312 287.535156 773.300781 304.523438 768.980469 C 304.761719 768.914062 305.078125 768.132812 304.992188 768.058594 C 304.535156 767.601562 303.871094 766.839844 303.4375 766.9375 C 297.328125 768.175781 291.226562 769.488281 285.148438 770.859375 C 268.789062 774.539062 252.296875 777.761719 236.101562 782.058594 C 216.105469 787.359375 195.699219 790.863281 175.734375 796.257812 C 173.117188 796.964844 170.382812 797.257812 167.679688 797.550781 C 167.070312 797.617188 165.800781 796.824219 165.824219 796.5 C 165.910156 795.488281 166.203125 793.945312 166.875 793.644531 C 169.351562 792.535156 171.980469 791.722656 174.605469 791.039062 C 180.652344 789.464844 186.710938 787.964844 192.800781 786.578125 C 204.578125 783.882812 216.410156 781.398438 228.175781 778.628906 C 240.703125 775.675781 253.1875 772.519531 265.671875 769.414062 C 270.957031 768.101562 276.222656 766.722656 281.5 765.34375 C 281.824219 765.257812 282.085938 764.886719 282.367188 764.648438 C 281.945312 764.257812 281.542969 763.550781 281.085938 763.519531 C 274.140625 762.976562 267.289062 761.859375 260.191406 762.921875 C 254.859375 763.726562 249.226562 763.378906 243.820312 762.738281 C 227.472656 760.816406 211.035156 761.859375 194.65625 760.925781 C 189.609375 760.632812 184.582031 760.6875 179.5 759.980469 C 172.964844 759.078125 166.257812 759.175781 159.710938 760.816406 C 157.03125 761.488281 155.945312 762.878906 156.359375 765.949219 C 157.8125 776.773438 159.375 787.585938 160.785156 798.410156 C 161.035156 800.285156 161.003906 802.296875 160.589844 804.117188 C 160.417969 804.902344 158.964844 805.585938 157.964844 805.886719 C 157.507812 806.019531 156.53125 805.238281 156.164062 804.640625 C 155.566406 803.683594 155.035156 802.566406 154.882812 801.460938 C 153.859375 794.121094 153.023438 786.761719 151.984375 779.421875 C 151.386719 775.179688 150.429688 770.988281 149.8125 766.753906 C 148.683594 759.046875 147.738281 751.308594 146.632812 743.589844 C 144.851562 731.234375 142.453125 718.945312 141.332031 706.539062 C 139.964844 691.351562 136.40625 676.554688 134.515625 661.476562 C 132.738281 647.160156 130.804688 632.851562 128.816406 618.566406 C 127.375 608.15625 125.941406 597.722656 124.105469 587.378906 C 123.433594 583.613281 121.816406 579.941406 120.199219 576.4375 C 118.839844 573.503906 116.34375 571.550781 112.957031 571.105469 C 109.09375 570.605469 105.238281 569.957031 101.351562 569.683594 C 96.285156 569.335938 91.203125 569.230469 86.125 569.175781 C 77.925781 569.085938 69.785156 568.664062 61.613281 567.796875 C 51.929688 566.753906 42.082031 567.339844 32.355469 566.570312 C 12.882812 565.027344 -6.691406 565.558594 -26.121094 563.996094 C -46.355469 562.367188 -66.644531 562.03125 -86.859375 560.21875 C -92.285156 559.730469 -97.789062 560.023438 -103.25 559.882812 C -106.757812 559.796875 -110.316406 559.882812 -113.769531 559.339844 C -127.738281 557.148438 -141.839844 557.960938 -155.867188 557.265625 C -157.40625 557.191406 -158.980469 557.40625 -160.523438 557.613281 C -163.335938 557.992188 -165.65625 560.425781 -165.527344 563.171875 C -165.332031 567.449219 -165.105469 571.746094 -164.484375 575.96875 C -162.171875 591.777344 -159.710938 607.558594 -157.289062 623.355469 C -155.574219 634.523438 -153.261719 645.640625 -152.25 656.875 C -151.242188 668.15625 -149.375 679.257812 -147.648438 690.417969 C -144.542969 710.449219 -141.722656 730.507812 -138.835938 750.570312 C -137.390625 760.609375 -136.023438 770.652344 -134.675781 780.703125 C -134.46875 782.234375 -134.320312 783.851562 -134.621094 785.328125 C -134.816406 786.285156 -135.761719 787.53125 -136.609375 787.769531 C -137.367188 787.976562 -138.714844 787.183594 -139.332031 786.445312 C -140.027344 785.609375 -140.386719 784.363281 -140.539062 783.234375 C -143.121094 765.105469 -145.640625 746.953125 -148.214844 728.824219 C -149.972656 716.472656 -151.804688 704.140625 -153.621094 691.796875 C -153.726562 691.027344 -153.976562 690.265625 -154.03125 689.496094 C -155.519531 669.25 -160.578125 649.527344 -162.609375 629.324219 C -164.636719 609.167969 -168.144531 589.171875 -170.933594 569.085938 C -171.304688 566.40625 -171.585938 563.636719 -171.378906 560.945312 C -171.0625 556.605469 -167.363281 552.890625 -163.0625 552.402344 C -159.96875 552.054688 -156.8125 551.828125 -153.707031 551.957031 C -143.578125 552.390625 -133.460938 552.066406 -123.3125 553.324219 C -112.519531 554.660156 -101.511719 554.445312 -90.59375 554.671875 C -84.339844 554.800781 -78.128906 554.8125 -71.941406 556.007812 C -69.71875 556.441406 -67.273438 556.160156 -64.996094 555.769531 C -64.128906 555.617188 -63.324219 554.335938 -62.769531 553.402344 C -62.410156 552.804688 -62.464844 551.894531 -62.5 551.132812 C -62.867188 542.566406 -63.0625 533.980469 -63.734375 525.4375 C -64.464844 516.113281 -65.246094 506.765625 -66.722656 497.550781 C -68.035156 489.386719 -68.253906 481.234375 -68.089844 473.050781 C -67.90625 463.886719 -69.71875 455.3125 -73.59375 446.996094 C -79.019531 435.335938 -84.199219 423.558594 -89.246094 411.726562 C -91.082031 407.4375 -93.066406 402.96875 -93.546875 398.417969 C -94.542969 388.910156 -100.046875 381.898438 -105.148438 374.558594 C -108.039062 370.410156 -111.011719 366.308594 -114.082031 362.292969 C -117.480469 357.839844 -119.554688 352.78125 -120.738281 347.441406 C -122.496094 339.496094 -125.429688 331.722656 -124.832031 323.34375 C -124.429688 317.652344 -119.4375 314.386719 -114.09375 316.570312 C -110.785156 317.925781 -107.960938 319.695312 -106.539062 323.375 C -103.726562 330.636719 -100.4375 337.726562 -97.617188 344.988281 C -94.835938 352.132812 -89.519531 357.234375 -84.273438 362.433594 C -83.820312 362.886719 -82.765625 363.0625 -82.09375 362.898438 C -80.769531 362.585938 -80.628906 361.476562 -80.789062 360.238281 C -82.179688 349.417969 -83.796875 338.605469 -84.816406 327.75 C -85.695312 318.359375 -84.753906 309.078125 -81.5625 300.058594 C -79.75 294.933594 -78.714844 289.550781 -77.046875 284.371094 C -75.894531 280.8125 -73.0625 278.726562 -69.554688 277.511719 C -67.089844 276.652344 -64.929688 277.273438 -63.042969 278.867188 C -59.882812 281.539062 -58.308594 285.097656 -58.144531 289.136719 C -58.015625 292.242188 -58.222656 295.390625 -58.625 298.472656 C -59.230469 303.109375 -59.65625 307.851562 -61 312.28125 C -63.941406 321.929688 -60.554688 330.679688 -57.984375 339.613281 C -57.894531 339.917969 -57.515625 340.136719 -57.277344 340.386719 C -56.789062 339.851562 -56.0625 339.398438 -55.855469 338.769531 C -55.484375 337.683594 -55.335938 336.488281 -55.257812 335.335938 C -54.953125 330.679688 -54.757812 326.023438 -54.433594 321.378906 C -54.011719 315.394531 -52.152344 309.902344 -48.417969 305.160156 C -46.445312 302.652344 -45.421875 299.785156 -44.25 296.875 C -41.472656 290.015625 -38.292969 283.316406 -35.078125 276.640625 C -34.460938 275.351562 -33.046875 274.351562 -31.820312 273.472656 C -31.355469 273.136719 -30.257812 273.277344 -29.671875 273.613281 C -29.097656 273.9375 -28.359375 274.882812 -28.476562 275.371094 C -29.019531 277.609375 -29.597656 279.898438 -30.59375 281.949219 C -35.5 292.121094 -40.691406 302.175781 -45.457031 312.410156 C -46.910156 315.527344 -47.800781 319.054688 -48.203125 322.472656 C -49.296875 331.753906 -49.9375 341.089844 -50.894531 350.394531 C -51.132812 352.695312 -51.761719 354.964844 -52.425781 357.199219 C -53.109375 359.511719 -56.367188 360.109375 -58.113281 358.230469 C -59.15625 357.113281 -60.316406 355.886719 -60.792969 354.496094 C -61.792969 351.554688 -62.410156 348.484375 -63.097656 345.445312 C -64.214844 340.503906 -64.855469 335.414062 -66.460938 330.636719 C -68.011719 326.011719 -68.207031 321.519531 -67.566406 316.828125 C -66.429688 308.328125 -65.277344 299.828125 -64.300781 291.308594 C -64.082031 289.429688 -64.453125 287.464844 -64.746094 285.566406 C -64.984375 283.957031 -67.089844 282.070312 -67.808594 282.632812 C -68.652344 283.296875 -69.597656 284.089844 -70.023438 285.035156 C -77.445312 301.773438 -81.179688 318.988281 -77.652344 337.398438 C -75.820312 346.953125 -76.164062 356.851562 -73.648438 366.351562 C -73.375 367.382812 -73.863281 368.652344 -74.09375 369.78125 C -74.351562 371.085938 -76.457031 372.464844 -77.695312 372.160156 C -78.816406 371.886719 -80.0625 371.746094 -81.007812 371.160156 C -87.628906 366.980469 -93.730469 362.117188 -98.636719 355.972656 C -100.320312 353.867188 -102.207031 351.492188 -102.738281 348.972656 C -104.28125 341.644531 -108.6875 335.445312 -110.394531 328.195312 C -110.882812 326.089844 -112.660156 324.179688 -114.191406 322.496094 C -114.722656 321.910156 -116.363281 322.050781 -117.394531 322.289062 C -117.894531 322.410156 -118.304688 323.472656 -118.503906 324.179688 C -118.707031 324.90625 -118.761719 325.753906 -118.609375 326.488281 C -117.046875 333.71875 -115.753906 341.046875 -113.714844 348.136719 C -111.871094 354.507812 -108.992188 360.585938 -104.5 365.625 C -99.777344 370.921875 -96.496094 377.152344 -92.871094 383.144531 C -91.09375 386.097656 -90.09375 389.550781 -88.898438 392.828125 C -86.5 399.417969 -84.308594 406.082031 -81.84375 412.640625 C -79.097656 419.921875 -76.144531 427.140625 -73.265625 434.371094 C -72.691406 435.828125 -72.28125 437.390625 -71.433594 438.671875 C -64.410156 449.167969 -62.5 461.011719 -62.703125 473.222656 C -62.921875 485.78125 -60.425781 498.058594 -59.609375 510.5 C -58.742188 523.710938 -57.015625 536.859375 -55.679688 550.035156 C -55.226562 554.550781 -53.609375 556.167969 -49.058594 556.570312 C -48.277344 556.636719 -47.496094 556.660156 -46.714844 556.679688 C -42.023438 556.832031 -37.335938 556.898438 -32.65625 557.136719 C -25.253906 557.515625 -17.859375 558.027344 -10.46875 558.4375 C -8.917969 558.523438 -7.289062 558.710938 -5.8125 558.351562 C -4.867188 558.125 -3.46875 557.015625 -3.445312 556.265625 C -3.335938 553.183594 -3.269531 550.003906 -3.933594 547.019531 C -5.972656 537.855469 -6.667969 528.53125 -7.886719 519.273438 C -9.199219 509.261719 -9.957031 499.191406 -11.488281 489.191406 C -12.953125 479.59375 -14.257812 469.957031 -15.960938 460.390625 C -16.992188 454.628906 -15.679688 449.6875 -11.585938 445.347656 C -7.851562 441.382812 -4.878906 436.78125 -0.4375 433.40625 C 1.625 431.832031 3.273438 429.355469 4.402344 426.957031 C 7.886719 419.566406 11.046875 412.007812 14.292969 404.507812 C 14.757812 403.445312 15.28125 402.304688 15.355469 401.175781 C 15.964844 392.480469 18.636719 384.4375 22.78125 376.816406 C 22.957031 376.5 23.007812 376.023438 22.910156 375.6875 C 22.695312 374.980469 22.5 374.089844 21.976562 373.691406 C 21.480469 373.308594 20.382812 373.113281 19.882812 373.398438 C 12.980469 377.359375 6.945312 382.027344 4.847656 390.386719 C 4.011719 393.738281 2.570312 397.0625 0.808594 400.046875 C -2.359375 405.429688 -8.429688 407.09375 -14.507812 404.550781 C -15.484375 404.140625 -16.589844 403.152344 -16.917969 402.195312 C -19.042969 395.933594 -21.226562 389.65625 -22.820312 383.242188 C -23.441406 380.757812 -22.964844 377.816406 -22.367188 375.230469 C -21.746094 372.605469 -19.773438 370.25 -19.425781 367.632812 C -18.414062 360.097656 -14.367188 355.832031 -7.058594 354.128906 C -4.507812 353.53125 -2.207031 350.6875 0.496094 352.183594 C 2.382812 353.226562 3.546875 355.582031 5.042969 357.339844 C 7.367188 360.066406 9.984375 362.421875 13.628906 363.0625 C 14.652344 363.234375 16.136719 362.941406 16.800781 362.269531 C 17.34375 361.726562 17.453125 359.847656 16.941406 359.316406 C 13.96875 356.179688 11.613281 352.652344 9.246094 349.046875 C 7.34375 346.136719 4.792969 343.640625 2.4375 341.058594 C 1.058594 339.550781 -0.699219 338.800781 -2.816406 339.203125 C -5.496094 339.703125 -8.242188 339.960938 -10.871094 340.6875 C -18.046875 342.664062 -19.480469 341.96875 -23.015625 348.539062 C -24.636719 351.535156 -27.425781 353.945312 -29.890625 356.417969 C -31.625 358.175781 -34.71875 357.503906 -35.792969 355.203125 C -36.597656 353.476562 -37.507812 351.589844 -37.5625 349.753906 C -37.890625 337.238281 -37.3125 324.839844 -32.808594 312.878906 C -30.0625 305.59375 -27.835938 298.125 -25.472656 290.699219 C -23.917969 285.824219 -22.8125 280.917969 -24.449219 275.761719 C -24.65625 275.101562 -23.558594 273.332031 -22.996094 273.296875 C -22.050781 273.246094 -20.617188 273.929688 -20.164062 274.742188 C -19.230469 276.382812 -18.394531 278.292969 -18.273438 280.136719 C -18.089844 282.828125 -18.199219 285.664062 -18.839844 288.269531 C -21.140625 297.722656 -22.898438 307.351562 -26.859375 316.320312 C -29.109375 321.410156 -30.269531 326.632812 -30.085938 332.199219 C -29.953125 336.097656 -30.0625 340.003906 -30.03125 343.902344 C -30.03125 344.269531 -29.757812 344.957031 -29.648438 344.957031 C -28.957031 344.902344 -27.945312 344.933594 -27.640625 344.511719 C -22.996094 337.910156 -16.039062 335.804688 -8.613281 334.546875 C -7.070312 334.285156 -5.410156 334.394531 -3.988281 333.851562 C 1.765625 331.65625 5.683594 333.761719 8.972656 338.5625 C 12.046875 343.054688 15.441406 347.34375 18.949219 351.523438 C 21.511719 354.574219 23.910156 357.632812 24.007812 361.78125 C 24.085938 364.84375 25.757812 366.730469 27.871094 368.597656 C 30.109375 370.5625 30.988281 373.058594 29.578125 375.949219 C 24.421875 386.519531 21.695312 397.875 18.570312 409.132812 C 17.222656 413.984375 14.921875 418.578125 13.042969 423.289062 C 10.417969 429.898438 6.8125 435.816406 1.253906 440.460938 C -0.816406 442.199219 -2.71875 444.21875 -4.402344 446.34375 C -10.511719 454.042969 -10.371094 454.0625 -8.894531 464.410156 C -6.441406 481.734375 -4.140625 499.070312 -1.730469 516.394531 C -0.273438 526.816406 1.210938 537.226562 2.785156 547.625 C 3.1875 550.320312 3.914062 552.957031 4.578125 555.605469 C 4.96875 557.167969 7.074219 558.765625 7.929688 558.179688 C 8.863281 557.546875 9.917969 556.777344 10.363281 555.824219 C 11.175781 554.074219 11.515625 552.097656 12.175781 550.273438 C 13.578125 546.441406 13.433594 542.753906 12.078125 538.855469 C 10.6875 534.839844 9.289062 530.84375 9.007812 526.425781 C 8.507812 518.445312 9.753906 510.914062 12.6875 503.542969 C 17.441406 491.601562 22.109375 479.617188 26.820312 467.664062 C 31.964844 454.605469 36.9375 441.480469 42.320312 428.53125 C 46.957031 417.382812 51.515625 406.160156 58.160156 395.996094 C 60.722656 392.089844 63.457031 388.28125 66.398438 384.652344 C 67.832031 382.882812 69.742188 381.300781 71.75 380.234375 C 80.878906 375.425781 90.496094 371.921875 100.972656 374.125 C 109.699219 375.957031 117.777344 374.039062 126.191406 372.191406 C 137.773438 369.640625 148.160156 364.277344 159.050781 360.089844 C 162.816406 358.644531 164.390625 355.746094 163.976562 351.761719 C 163.78125 349.828125 163.792969 347.832031 163.285156 345.976562 C 162.328125 342.546875 160.882812 339.375 157.007812 338.128906 C 155.976562 337.789062 155.140625 336.847656 154.25 336.128906 C 153.492188 335.511719 153.761719 333.363281 154.597656 333.078125 C 155.328125 332.828125 156.054688 332.320312 156.769531 332.339844 C 166.496094 332.632812 175.050781 328.792969 183.441406 324.613281 C 201.960938 315.394531 220.035156 305.332031 237.949219 294.988281 C 242.398438 292.414062 245.96875 289.320312 248.945312 284.914062 C 253.785156 277.75 257.671875 270.171875 261.144531 262.355469 C 262.113281 260.183594 262.882812 258.132812 264.707031 256.484375 C 265.390625 255.863281 265.824219 254.203125 265.5 253.355469 C 262.96875 246.703125 262.546875 239.65625 261.308594 232.765625 C 260.191406 226.535156 260.644531 220.3125 260.808594 214.09375 C 260.839844 213.027344 261.65625 211.976562 262.210938 210.964844 C 262.359375 210.695312 262.9375 210.414062 263.21875 210.488281 C 263.871094 210.683594 264.5 211.03125 265.042969 211.445312 C 265.304688 211.652344 265.3125 212.160156 265.445312 212.519531 C 266.3125 214.875 263.75 218.609375 267.234375 219.585938 C 269.492188 220.214844 270.675781 216.914062 272.238281 215.277344 C 275.257812 212.105469 278.6875 209.566406 282.964844 208.480469 C 283.984375 208.21875 285.277344 208.535156 286.308594 208.9375 C 286.851562 209.152344 287.15625 210.097656 287.4375 210.769531 C 287.546875 211.03125 287.382812 211.5625 287.164062 211.78125 C 286.625 212.300781 286.035156 212.910156 285.351562 213.148438 C 278.644531 215.449219 274.886719 221.117188 270.710938 226.1875 C 267.257812 230.367188 266.746094 235.414062 268.125 240.625 C 271.847656 254.660156 272.445312 255.007812 283.410156 246.183594 C 295.070312 236.792969 300.484375 222.410156 295.753906 207.363281 C 294.40625 203.097656 291.042969 201.390625 286.589844 202.5 C 282.28125 203.574219 278.90625 206.199219 275.386719 208.675781 C 272.726562 210.554688 272.078125 210.554688 269.796875 207.535156 C 267.105469 203.976562 263.773438 201.035156 259.636719 200.003906 C 251.59375 198.003906 244.234375 194.445312 236.65625 191.351562 C 233.972656 190.253906 230.914062 191.816406 230.328125 194.628906 C 229.449219 198.832031 228.773438 203.074219 227.882812 207.265625 C 226.832031 212.257812 224.691406 216.796875 222.335938 221.332031 C 218.09375 229.496094 210.90625 233.894531 203.078125 237.660156 C 202.046875 238.160156 200.84375 238.410156 199.703125 238.527344 C 192.722656 239.265625 185.734375 239.949219 178.742188 240.625 C 177.972656 240.699219 177.15625 240.679688 176.417969 240.484375 C 170.273438 238.84375 164.226562 236.261719 160.34375 231.449219 C 155.792969 225.828125 150.777344 220.074219 149.855469 212.226562 C 149.496094 209.152344 148.207031 206.199219 147.78125 203.128906 C 147.023438 197.59375 145.21875 197.0625 139.792969 197.210938 C 139.402344 197.222656 139.011719 197.246094 138.621094 197.277344 C 134.808594 197.613281 132.8125 199.40625 132.421875 202.988281 C 132.203125 204.921875 132.28125 206.894531 131.988281 208.816406 C 131.171875 214.203125 130.628906 219.660156 129.242188 224.90625 C 127.699219 230.722656 124.191406 235.425781 118.613281 238.203125 C 118.113281 238.453125 117.039062 238.117188 116.5625 237.691406 C 116.09375 237.28125 115.671875 236.171875 115.898438 235.75 C 117.203125 233.371094 118.839844 231.191406 120.144531 228.800781 C 126.210938 217.652344 127.839844 206.027344 123.757812 193.816406 C 122.726562 190.722656 120.839844 188.234375 118.09375 186.597656 C 111.632812 182.742188 104.839844 179.84375 97.054688 180.820312 C 91.617188 181.503906 86.273438 182.625 81.445312 185.390625 C 78.882812 186.855469 77.472656 189.082031 77.699219 192.144531 C 77.785156 193.304688 77.820312 194.5 78.070312 195.628906 C 80.71875 207.808594 83.386719 219.976562 86.078125 232.136719 C 86.328125 233.273438 86.839844 234.347656 87.207031 235.457031 C 88.152344 238.324219 90.054688 239.917969 93.09375 240.40625 C 98.195312 241.230469 103.199219 240.753906 108.234375 239.851562 C 109.027344 239.710938 110.15625 240.6875 110.875 241.40625 C 111.101562 241.632812 110.679688 242.945312 110.210938 243.347656 C 102.753906 249.71875 89.378906 248.199219 83.019531 242.859375 C 73.703125 235.042969 66.691406 226.261719 65 213.800781 C 64.476562 210.023438 62.652344 206.417969 61.449219 202.738281 C 60.375 199.472656 60.6875 196.375 63.695312 194.390625 C 67.410156 191.9375 69.65625 188.246094 72.378906 184.980469 C 75.800781 180.886719 79.925781 178.335938 85.125 177.316406 C 92.027344 175.96875 98.890625 174.285156 105.988281 175.914062 C 114.511719 177.867188 122.390625 181.050781 128.351562 187.769531 C 130.371094 190.046875 132.671875 190.875 135.644531 190.308594 C 137.945312 189.875 140.269531 189.472656 142.605469 189.351562 C 146.425781 189.15625 149.105469 188.019531 150.660156 183.980469 C 151.886719 180.808594 154.339844 178.074219 156.445312 175.296875 C 157.0625 174.480469 158.378906 174.144531 159.410156 173.6875 C 159.667969 173.582031 160.136719 173.765625 160.429688 173.949219 C 160.742188 174.15625 161.242188 174.589844 161.175781 174.785156 C 160.765625 176.25 160.460938 177.824219 159.679688 179.085938 C 156.269531 184.597656 155.066406 190.625 155.140625 196.984375 C 155.175781 199.71875 155.347656 202.457031 155.230469 205.179688 C 154.902344 213.148438 158.671875 219.367188 163.632812 225.078125 C 165.160156 226.847656 167.019531 228.347656 168.449219 230.179688 C 170.328125 232.601562 172.78125 233.308594 175.636719 233.339844 C 181.109375 233.394531 186.578125 233.6875 192.039062 233.492188 C 202.625 233.101562 210.570312 227.878906 215.890625 218.988281 C 221.003906 210.445312 223.3125 200.980469 223.011719 191.015625 C 222.914062 187.953125 222.140625 184.871094 221.316406 181.894531 C 220.675781 179.605469 219.058594 177.867188 216.898438 176.664062 C 207.128906 171.179688 196.835938 168.292969 185.539062 170.183594 C 179.773438 171.148438 173.996094 172.015625 168.199219 172.832031 C 167.5625 172.917969 166.203125 172.265625 166.226562 172.0625 C 166.332031 171.03125 166.53125 169.804688 167.179688 169.074219 C 167.90625 168.25 169.101562 167.75 170.1875 167.359375 C 183.050781 162.691406 196.097656 161.835938 209.265625 165.882812 C 214.519531 167.5 219.601562 169.738281 223.324219 173.9375 C 225.746094 176.675781 228.535156 178.519531 231.890625 179.800781 C 243.894531 184.402344 255.878906 189.082031 267.855469 193.761719 C 269.667969 194.464844 271.609375 195.0625 273.171875 196.171875 C 276.679688 198.625 280.285156 199.015625 284.289062 197.746094 C 285.742188 197.289062 287.371094 197.082031 288.882812 197.191406 C 297.382812 197.808594 302.15625 202.574219 302.9375 211.519531 C 304.199219 225.96875 299.78125 238.472656 289.371094 248.667969 C 286.046875 251.925781 282.628906 255.117188 278.382812 257.339844 C 274.628906 259.316406 274.28125 260.957031 275.746094 265.003906 C 276.136719 266.089844 276.625 267.207031 277.332031 268.109375 C 277.679688 268.554688 278.90625 268.933594 279.242188 268.683594 C 285.875 263.84375 291.734375 258.132812 297 251.871094 C 306.390625 240.679688 311.699219 227.128906 318.0625 214.222656 C 319.730469 210.824219 320.449219 206.710938 320.65625 202.878906 C 321.1875 193.347656 324.183594 184.554688 327.6875 175.828125 C 329.578125 171.128906 331.164062 166.308594 332.933594 161.550781 C 334.605469 157.046875 335.082031 152.367188 334.277344 147.710938 C 331.609375 132.242188 327.710938 117.199219 317.757812 104.484375 C 316.800781 103.257812 315.847656 101.976562 315.164062 100.597656 C 310.691406 91.621094 303.394531 85.261719 295.546875 79.421875 L 295.644531 79.582031 Z M 364.511719 50.328125 C 364.445312 37.203125 360.441406 27.800781 352.972656 19.757812 C 350.660156 17.273438 347.878906 16.40625 344.558594 16.6875 C 339.804688 17.097656 335.441406 18.738281 331.371094 21.0625 C 319.296875 27.953125 309.320312 37.019531 303.082031 49.65625 C 301.363281 53.128906 300.183594 56.863281 298.628906 60.421875 C 296.664062 64.949219 296.414062 68.890625 299.890625 73.222656 C 302.308594 76.238281 304.21875 79.722656 307.464844 81.917969 C 312.144531 85.097656 315 89.710938 317.972656 94.257812 C 319.460938 96.527344 320.675781 98.980469 322.109375 101.28125 C 326.464844 108.273438 328.472656 107.4375 333.496094 105.210938 C 337.394531 103.488281 341.550781 102.109375 345.027344 99.742188 C 351.972656 95.007812 357.554688 88.722656 357.921875 79.953125 C 358.195312 73.578125 359.855469 67.773438 361.6875 61.84375 C 363.054688 57.425781 363.890625 52.847656 364.5 50.316406 Z M -8.003906 399.125 C -7.179688 398.484375 -5.929688 397.972656 -5.441406 397.0625 C -4.195312 394.695312 -3.128906 392.210938 -2.273438 389.667969 C -0.773438 385.230469 1.125 381.050781 4.285156 377.523438 C 6.324219 375.242188 8.324219 372.929688 10.332031 370.640625 C 9.300781 366.765625 4.773438 366.6875 2.894531 363.941406 C -0.222656 359.382812 -3.542969 359.46875 -7.917969 362.097656 C -10.792969 363.8125 -12.738281 365.625 -13.191406 369.085938 C -13.484375 371.335938 -14.214844 373.644531 -15.300781 375.621094 C -17.175781 379.03125 -16.785156 382.191406 -15.398438 385.578125 C -14.234375 388.429688 -13.53125 391.460938 -12.453125 394.347656 C -11.921875 395.757812 -11.097656 397.105469 -10.1875 398.320312 C -9.816406 398.808594 -8.851562 398.832031 -7.992188 399.125 Z M 282.324219 757.984375 C 285.050781 757.984375 287.773438 757.996094 290.5 757.984375 C 292.832031 757.972656 295.167969 757.875 297.5 757.894531 C 298.664062 757.90625 299.054688 757.539062 298.574219 756.5625 C 298.414062 756.234375 298.085938 755.929688 297.761719 755.78125 C 289.652344 751.882812 280.773438 750.351562 272.359375 747.441406 C 266.734375 745.5 261.070312 744.816406 255.175781 744.664062 C 250.691406 744.554688 246.664062 745.445312 243.113281 748.136719 C 239.011719 751.242188 234.484375 753.347656 229.457031 754.476562 C 228.796875 754.628906 228.242188 755.203125 227.636719 755.585938 C 228.40625 755.636719 229.175781 755.769531 229.945312 755.746094 C 247.445312 755.367188 264.847656 757.429688 282.324219 757.984375 Z M 72.066406 200.296875 C 71.761719 200.859375 71.261719 201.414062 71.175781 202.011719 C 69.980469 211.109375 71.738281 219.617188 76.460938 227.488281 C 76.789062 228.019531 77.730469 228.183594 78.394531 228.519531 C 78.65625 227.835938 79.261719 227.085938 79.132812 226.480469 C 77.382812 218.21875 75.550781 209.980469 73.703125 201.738281 C 73.628906 201.382812 73.367188 201.023438 73.097656 200.773438 C 72.835938 200.546875 72.457031 200.457031 72.066406 200.296875 Z M 272.207031 275.816406 C 271.089844 272.320312 270.058594 269.054688 268.996094 265.785156 C 268.898438 265.472656 268.460938 264.984375 268.289062 265.027344 C 267.582031 265.199219 266.53125 265.351562 266.292969 265.851562 C 264.597656 269.316406 262.785156 272.753906 261.625 276.402344 C 261.015625 278.335938 262.859375 279.875 264.53125 280.960938 C 266.03125 281.941406 267.550781 281.753906 268.699219 280.515625 C 269.949219 279.160156 270.9375 277.566406 272.21875 275.816406 Z M 272.207031 275.816406 " fill-opacity="1" fill-rule="nonzero"/><path fill="#ffffff" d="M 75.148438 330.660156 C 75.996094 334.425781 76.65625 338.246094 77.710938 341.949219 C 80.542969 351.859375 87.925781 356.246094 97.53125 357.527344 C 100.203125 357.882812 102.980469 357.386719 105.707031 357.472656 C 106.25 357.492188 107.042969 358.339844 107.195312 358.9375 C 107.347656 359.554688 107.085938 360.621094 106.617188 360.976562 C 105.402344 361.902344 104.066406 362.886719 102.625 363.246094 C 87.621094 367.011719 73.03125 354.878906 70.644531 344.121094 C 67.648438 330.625 69.144531 317.773438 75.84375 305.625 C 79.035156 299.839844 82.789062 294.402344 85.449219 288.289062 C 87.066406 284.566406 88.097656 281.113281 87.15625 277.042969 C 86.113281 272.496094 85.296875 267.882812 84.691406 263.257812 C 84.136719 259.023438 83.875 254.746094 83.734375 250.480469 C 83.703125 249.4375 84.648438 248.15625 86.046875 248.417969 C 87.058594 248.613281 88.46875 249.1875 88.773438 249.960938 C 89.476562 251.71875 89.902344 253.703125 89.921875 255.59375 C 90.03125 266.753906 93.894531 277.023438 97.542969 287.292969 C 98.554688 290.125 100.59375 292.75 102.667969 295.019531 C 105.816406 298.472656 109.050781 302.011719 112.847656 304.648438 C 123.074219 311.75 132.238281 320.421875 143.625 325.851562 C 144.925781 326.46875 145.925781 327.878906 146.839844 329.09375 C 147.183594 329.5625 147.121094 330.660156 146.792969 331.191406 C 146.445312 331.753906 145.566406 332.277344 144.90625 332.285156 C 143.789062 332.308594 142.484375 332.222656 141.550781 331.679688 C 127.386719 323.386719 113.804688 314.234375 101.929688 302.824219 C 99.117188 300.132812 96.542969 297.160156 94.101562 294.121094 C 91.398438 290.777344 89.488281 291.371094 88 294.402344 C 84.917969 300.707031 81.902344 307.046875 79.078125 313.476562 C 76.699219 318.878906 75.246094 324.535156 75.160156 330.648438 Z M 75.148438 330.660156 " fill-opacity="1" fill-rule="nonzero"/><path fill="#ffffff" d="M 105.609375 136.324219 C 105.933594 133.253906 106.269531 132.058594 106.109375 130.941406 C 105.96875 129.984375 105.238281 129.105469 104.785156 128.195312 C 104.152344 128.574219 103.273438 128.800781 102.9375 129.355469 C 98.53125 136.703125 94.015625 144 91.964844 152.464844 C 90.867188 156.972656 89.640625 161.445312 88.335938 165.882812 C 88.207031 166.316406 87.011719 166.753906 86.425781 166.632812 C 85.820312 166.511719 85.09375 165.808594 84.875 165.199219 C 84.496094 164.113281 84.246094 162.898438 84.34375 161.769531 C 84.582031 159.066406 84.746094 156.277344 85.503906 153.691406 C 89.859375 138.953125 96.480469 125.382812 107.097656 114.058594 C 109.515625 111.476562 111.882812 108.96875 113.382812 105.722656 C 120.71875 89.839844 132.550781 77.410156 144.675781 65.230469 C 149.355469 60.542969 154.175781 55.960938 160.027344 52.714844 C 160.589844 52.402344 161.460938 52.574219 162.175781 52.628906 C 163.078125 52.695312 162.96875 54.59375 162.003906 55.613281 C 161.199219 56.460938 160.417969 57.339844 159.558594 58.132812 C 158.136719 59.46875 156.617188 60.695312 155.21875 62.050781 C 145.382812 71.539062 135.992188 81.472656 127.820312 92.425781 C 116.984375 106.949219 111.1875 123.199219 112.914062 141.578125 C 113.207031 144.640625 114.03125 147.691406 114.910156 150.652344 C 116.886719 157.375 120.511719 162.59375 127.917969 164.265625 C 129.394531 164.601562 130.792969 165.472656 132.074219 166.308594 C 132.519531 166.601562 132.84375 167.652344 132.660156 168.175781 C 132.445312 168.792969 131.714844 169.378906 131.074219 169.671875 C 130.402344 169.976562 129.523438 170.097656 128.808594 169.964844 C 119.785156 168.261719 113.011719 163.550781 109.417969 154.917969 C 106.695312 148.375 105.523438 141.503906 105.609375 136.3125 Z M 105.609375 136.324219 " fill-opacity="1" fill-rule="nonzero"/><path fill="#ffffff" d="M 268.453125 174.003906 C 267.59375 174.425781 266.910156 175.078125 266.269531 175.035156 C 265.152344 174.960938 263.957031 174.644531 262.980469 174.101562 C 255.46875 169.945312 248.585938 164.820312 241.660156 159.78125 C 235.777344 155.496094 232.585938 149.175781 229.316406 143 C 227.6875 139.929688 226.550781 136.542969 225.617188 133.175781 C 222.792969 123.027344 221.175781 112.605469 220.144531 102.164062 C 219.179688 92.457031 218.34375 82.785156 215.910156 73.320312 C 215.726562 72.59375 215.714844 71.734375 215.921875 71.027344 C 216.128906 70.335938 216.855469 69.171875 217.105469 69.238281 C 218.136719 69.5 219.363281 69.910156 219.960938 70.703125 C 220.621094 71.5625 220.761719 72.875 220.957031 74.015625 C 222.457031 82.839844 224 91.664062 225.367188 100.511719 C 226.3125 106.667969 226.875 112.875 227.851562 119.03125 C 229.023438 126.371094 231.28125 133.371094 234.496094 140.136719 C 238.640625 148.863281 245.046875 155.429688 252.851562 160.847656 C 257.648438 164.179688 262.449219 167.492188 267.128906 170.976562 C 267.910156 171.550781 268.039062 172.996094 268.460938 174.027344 Z M 268.453125 174.003906 " fill-opacity="1" fill-rule="nonzero"/><path fill="#ffffff" d="M 176.496094 56.332031 C 177.003906 56.808594 178.003906 57.363281 177.949219 57.765625 C 177.09375 63.898438 176.332031 70.0625 175.09375 76.132812 C 172.445312 89.136719 168.203125 101.652344 162.828125 113.777344 C 159.953125 120.28125 158.855469 127.171875 157.738281 134.054688 C 156.847656 139.546875 158.0625 144.890625 160.539062 149.90625 C 162.089844 153.042969 163.664062 156.167969 165.097656 159.347656 C 165.335938 159.890625 165.042969 161.238281 164.707031 161.355469 C 163.738281 161.695312 162.492188 161.921875 161.578125 161.574219 C 160.558594 161.195312 159.605469 160.28125 158.941406 159.371094 C 155.21875 154.257812 152.796875 148.613281 152.210938 142.230469 C 151.40625 133.601562 151.84375 125.230469 155.328125 117.054688 C 158.984375 108.480469 161.863281 99.566406 165.445312 90.960938 C 169.070312 82.253906 170.558594 73.039062 172.761719 63.984375 C 173.304688 61.738281 173.8125 59.46875 174.550781 57.296875 C 174.714844 56.808594 175.820312 56.632812 176.484375 56.320312 Z M 176.496094 56.332031 " fill-opacity="1" fill-rule="nonzero"/><path fill="#ffffff" d="M 192.289062 86.921875 C 193.082031 83.132812 193.90625 78.953125 194.894531 74.828125 C 194.992188 74.394531 196.089844 74.15625 196.761719 73.960938 C 196.882812 73.925781 197.347656 74.523438 197.390625 74.859375 C 197.585938 76.378906 197.824219 77.921875 197.816406 79.453125 C 197.695312 90.382812 198.542969 101.078125 201.300781 111.8125 C 203.9375 122.050781 207.140625 131.949219 211.167969 141.6875 C 215.488281 152.152344 222.097656 160.414062 232.171875 165.828125 C 234.167969 166.90625 235.863281 168.574219 237.558594 170.128906 C 237.925781 170.464844 237.957031 171.703125 237.621094 172.136719 C 237.242188 172.636719 236.167969 173.113281 235.613281 172.929688 C 225.332031 169.53125 216.574219 163.929688 211.1875 154.269531 C 208.171875 148.851562 205.621094 143.140625 203.328125 137.378906 C 198.585938 125.402344 194.839844 113.160156 194.199219 100.121094 C 193.992188 95.878906 192.996094 91.664062 192.277344 86.933594 Z M 192.289062 86.921875 " fill-opacity="1" fill-rule="nonzero"/><path fill="#ffffff" d="M 185.699219 80.082031 C 186.90625 92.695312 184.125 104.898438 181.804688 117.152344 C 179.621094 128.660156 177.535156 140.1875 179.175781 151.988281 C 179.492188 154.289062 180.023438 156.570312 180.238281 158.871094 C 180.285156 159.414062 179.523438 160.335938 178.9375 160.542969 C 178.339844 160.75 177.320312 160.511719 176.820312 160.085938 C 175.972656 159.347656 175.074219 158.394531 174.769531 157.363281 C 173.988281 154.769531 173.054688 152.074219 173.03125 149.417969 C 172.976562 140.472656 172.761719 131.582031 174.757812 122.65625 C 177.394531 110.890625 179.902344 99.035156 180.792969 86.933594 C 181.304688 79.953125 181.902344 72.992188 181.324219 65.980469 C 181.207031 64.484375 181.609375 62.929688 181.878906 61.421875 C 181.921875 61.160156 182.542969 60.792969 182.824219 60.835938 C 183.496094 60.957031 184.472656 61.105469 184.722656 61.574219 C 185.253906 62.5625 185.644531 63.757812 185.667969 64.875 C 185.765625 69.945312 185.710938 75.003906 185.710938 80.070312 Z M 185.699219 80.082031 " fill-opacity="1" fill-rule="nonzero"/><path fill="#ffffff" d="M 272.238281 46.765625 C 270.492188 38.277344 272.152344 30.582031 277.527344 23.730469 C 278.242188 22.820312 278.925781 21.863281 279.730469 21.019531 C 280.535156 20.183594 281.347656 19.226562 282.355469 18.738281 C 289.085938 15.480469 293.550781 9.25 299.890625 5.515625 C 304.273438 2.933594 308.953125 1.21875 314.21875 1.273438 C 317.3125 1.304688 320.394531 0.554688 323.5 0.445312 C 327.832031 0.296875 332.085938 0.914062 335.753906 3.390625 C 336.917969 4.171875 337.675781 5.65625 338.371094 6.949219 C 338.535156 7.242188 337.566406 8.621094 337.351562 8.566406 C 331.316406 7.121094 325.203125 6.449219 318.996094 6.191406 C 310.40625 5.832031 302.917969 7.949219 296.785156 14.277344 C 294.644531 16.480469 292.179688 18.46875 289.566406 20.074219 C 281.726562 24.894531 277.246094 31.6875 276.363281 40.863281 C 276.257812 42.011719 276.050781 43.164062 275.734375 44.269531 C 275.214844 46.074219 273.554688 46.246094 272.066406 46.605469 L 272.25 46.765625 Z M 272.238281 46.765625 " fill-opacity="1" fill-rule="nonzero"/><path fill="#ffffff" d="M 199.246094 203.660156 C 198.953125 209.589844 198.433594 213.703125 194.808594 216.761719 C 192.160156 219 189.433594 219.324219 186.230469 218.230469 C 182.941406 217.101562 181.261719 214.734375 180.585938 211.554688 C 180.109375 209.339844 181.792969 208.15625 183.183594 206.789062 C 185.289062 204.734375 185.351562 204.53125 183.476562 202.476562 C 182.105469 200.980469 180.683594 199.503906 181.488281 197.496094 C 182.898438 193.957031 186.027344 192.402344 189.597656 191.808594 C 192.203125 191.371094 195.742188 193.476562 196.980469 196.429688 C 198.152344 199.222656 198.824219 202.21875 199.257812 203.648438 Z M 199.246094 203.660156 " fill-opacity="1" fill-rule="nonzero"/><path fill="#ffffff" d="M 119.667969 210.933594 C 119.296875 213.027344 119.089844 214.960938 118.601562 216.828125 C 117.179688 222.289062 111.785156 224.546875 106.5625 221.953125 C 103.601562 220.476562 102.9375 216.9375 105.175781 214.234375 C 108.171875 210.609375 108.234375 210.597656 105.878906 207.808594 C 105.132812 206.917969 104.316406 206.070312 103.6875 205.105469 C 102.710938 203.585938 103.515625 201.066406 105.183594 200.023438 C 109.386719 197.398438 115.976562 199.523438 117.898438 204.3125 C 118.753906 206.441406 119.101562 208.785156 119.667969 210.945312 Z M 119.667969 210.933594 " fill-opacity="1" fill-rule="nonzero"/><path fill="#ffffff" d="M 139.511719 63.417969 C 139.378906 64.136719 139.511719 65.199219 139.085938 65.492188 C 136.222656 67.457031 133.300781 69.355469 130.292969 71.09375 C 116.171875 79.277344 102.113281 87.574219 90.183594 98.925781 C 89.8125 99.273438 88.609375 99.308594 88.25 98.980469 C 87.816406 98.589844 87.480469 97.320312 87.75 97.015625 C 91.929688 92.445312 95.804688 87.453125 100.570312 83.566406 C 111.15625 74.957031 123.140625 68.457031 135.394531 62.527344 C 136.046875 62.214844 136.9375 62.128906 137.644531 62.28125 C 138.316406 62.421875 138.890625 63.027344 139.511719 63.429688 Z M 139.511719 63.417969 " fill-opacity="1" fill-rule="nonzero"/><path fill="#ffffff" d="M 208.726562 189.941406 C 208.679688 192.695312 206.164062 194.359375 204.511719 193.566406 C 202.09375 192.414062 199.738281 191.101562 197.292969 189.972656 C 194.113281 188.496094 190.757812 187.8125 187.21875 187.703125 C 183.246094 187.582031 179.578125 188.074219 176.277344 190.535156 C 174.769531 191.664062 172.945312 192.394531 171.21875 193.195312 C 170.175781 193.675781 167.941406 191.578125 168.332031 190.351562 C 168.777344 188.953125 169.285156 187.160156 170.371094 186.453125 C 182.898438 178.324219 194.699219 178.496094 206.933594 186.878906 C 208.019531 187.617188 208.421875 189.363281 208.734375 189.929688 Z M 208.726562 189.941406 " fill-opacity="1" fill-rule="nonzero"/><path fill="#ffffff" d="M 119.546875 195.519531 C 119.492188 196.757812 117.332031 198.6875 116.34375 198.289062 C 114.910156 197.710938 113.5 197.082031 112.144531 196.34375 C 106.714844 193.402344 101.636719 194.640625 96.847656 197.765625 C 94.9375 199.015625 93.460938 200.945312 91.550781 202.207031 C 90.835938 202.683594 89.324219 202.402344 88.382812 202 C 87.046875 201.425781 86.449219 199.210938 87.046875 198.003906 C 87.554688 196.972656 87.992188 195.855469 88.71875 194.976562 C 95.621094 186.574219 107.8125 184.761719 116.941406 190.722656 C 118.734375 191.894531 119.632812 193.554688 119.558594 195.519531 Z M 119.546875 195.519531 " fill-opacity="1" fill-rule="nonzero"/><path fill="#ffffff" d="M 262.15625 149.058594 C 262.6875 148.570312 263.199219 147.699219 263.761719 147.667969 C 267.617188 147.429688 271.492188 147.082031 275.34375 147.289062 C 286.113281 147.875 296.035156 145.28125 305.371094 140.035156 C 306.707031 139.289062 308.140625 138.691406 309.5625 138.105469 C 310.84375 137.574219 313.597656 138.613281 313.371094 139.539062 C 313.109375 140.589844 312.644531 141.949219 311.820312 142.445312 C 297.390625 151.21875 281.738281 154.246094 265.054688 151.96875 C 264.066406 151.835938 263.152344 150.871094 262.285156 150.1875 C 262.078125 150.023438 262.1875 149.449219 262.15625 149.058594 Z M 262.15625 149.058594 " fill-opacity="1" fill-rule="nonzero"/><path fill="#ffffff" d="M 276.417969 136.324219 C 270.65625 136.824219 264.207031 135.792969 258.050781 133.1875 C 256.316406 132.449219 254.742188 131.234375 253.230469 130.0625 C 252.863281 129.769531 252.960938 128.769531 253.015625 128.105469 C 253.035156 127.855469 253.613281 127.421875 253.871094 127.464844 C 255.773438 127.78125 257.78125 127.910156 259.527344 128.617188 C 269.253906 132.570312 279.023438 132.375 288.980469 129.550781 C 292.277344 128.617188 295.796875 128.390625 299.238281 128.007812 C 299.78125 127.945312 300.496094 128.714844 301.007812 129.214844 C 301.636719 129.820312 300.898438 131.644531 299.878906 132.101562 C 292.703125 135.335938 285.15625 136.671875 276.398438 136.324219 Z M 276.417969 136.324219 " fill-opacity="1" fill-rule="nonzero"/><path fill="#ffffff" d="M 295.613281 79.484375 C 294.40625 80.996094 293.113281 83.023438 291.007812 82.371094 C 277.722656 78.28125 264.207031 79.722656 250.714844 80.472656 C 250.324219 80.496094 249.800781 80.613281 249.585938 80.417969 C 249.0625 79.964844 248.378906 79.34375 248.359375 78.78125 C 248.335938 78.160156 248.835938 77.25 249.378906 76.933594 C 252.832031 74.925781 256.738281 74.589844 260.59375 74.414062 C 269.113281 74.035156 277.589844 74.414062 286.027344 76 C 289.554688 76.664062 292.660156 77.976562 295.710938 79.660156 L 295.613281 79.496094 Z M 295.613281 79.484375 " fill-opacity="1" fill-rule="nonzero"/><path fill="#ffffff" d="M 140.855469 290.730469 C 139.640625 290.4375 136.253906 289.765625 132.976562 288.757812 C 132.054688 288.472656 131.261719 287.300781 130.75 286.347656 C 130.53125 285.945312 131.152344 285.035156 131.511719 284.425781 C 131.671875 284.152344 132.195312 283.859375 132.464844 283.925781 C 142.257812 286.445312 151.558594 284.382812 160.753906 281.039062 C 161.210938 280.875 162.578125 281.691406 162.566406 282.027344 C 162.546875 283.046875 162.371094 284.566406 161.699219 284.980469 C 156 288.421875 149.933594 290.882812 140.867188 290.730469 Z M 140.855469 290.730469 " fill-opacity="1" fill-rule="nonzero"/><path fill="#ffffff" d="M 296.597656 190.65625 C 295.6875 190.308594 294.980469 190.039062 294.277344 189.765625 C 293.441406 189.429688 293.148438 187.3125 293.90625 186.738281 C 294.796875 186.054688 295.753906 184.980469 296.707031 184.925781 C 304.761719 184.535156 311.699219 181.179688 318.398438 177.097656 C 319.039062 176.707031 319.832031 176.542969 320.578125 176.390625 C 320.894531 176.328125 321.492188 176.457031 321.578125 176.652344 C 321.839844 177.261719 321.992188 177.957031 322.011719 178.617188 C 322.023438 178.941406 321.730469 179.355469 321.449219 179.617188 C 314.378906 186.183594 306.128906 190.082031 296.601562 190.65625 Z M 296.597656 190.65625 " fill-opacity="1" fill-rule="nonzero"/><path fill="#ffffff" d="M 135.050781 259.804688 C 134.941406 260.132812 134.898438 260.511719 134.703125 260.761719 C 134.472656 261.042969 134.0625 261.445312 133.8125 261.390625 C 128.230469 260.292969 123.671875 257.6875 121.328125 252.273438 C 121.011719 251.542969 121.785156 250.164062 122.390625 249.320312 C 122.621094 248.992188 124.042969 249.035156 124.488281 249.417969 C 127.972656 252.445312 131.359375 255.582031 134.746094 258.730469 C 134.984375 258.949219 134.960938 259.445312 135.070312 259.804688 Z M 135.050781 259.804688 " fill-opacity="1" fill-rule="nonzero"/><path fill="#ffffff" d="M 131.738281 237.757812 C 131.78125 240.875 130.726562 243.683594 127.558594 245.117188 C 126.746094 245.488281 125.386719 245.0625 124.453125 244.628906 C 124.007812 244.421875 123.660156 243.230469 123.835938 242.632812 C 124.691406 239.59375 126.460938 237.09375 128.949219 235.140625 C 129.199219 234.945312 129.785156 234.871094 130.035156 235.03125 C 130.609375 235.390625 131.140625 235.878906 131.5625 236.421875 C 131.769531 236.683594 131.671875 237.171875 131.75 237.757812 Z M 131.738281 237.757812 " fill-opacity="1" fill-rule="nonzero"/><path fill="#ffffff" d="M 308.550781 71.984375 C 308.214844 71.863281 307.824219 71.820312 307.550781 71.613281 C 307.257812 71.386719 306.859375 70.996094 306.878906 70.703125 C 306.976562 69.574219 306.945312 68.304688 307.453125 67.347656 C 313.988281 55.234375 322.890625 45.203125 334.269531 37.410156 C 337.1875 35.414062 340.316406 33.859375 344.027344 34.664062 C 344.6875 34.804688 345.546875 35.347656 345.742188 35.902344 C 345.9375 36.476562 345.578125 37.386719 345.1875 37.972656 C 344.785156 38.582031 344.125 39.136719 343.441406 39.441406 C 329.796875 45.410156 320.101562 55.636719 312.449219 68.066406 C 311.460938 69.671875 310.734375 71.539062 308.550781 71.960938 Z M 308.550781 71.984375 " fill-opacity="1" fill-rule="nonzero"/><path fill="#ffffff" d="M 342.398438 53.019531 C 342.105469 53.726562 342.019531 54.722656 341.496094 55.082031 C 335.375 59.238281 329.230469 63.34375 322.96875 67.285156 C 322.390625 67.640625 320.914062 66.839844 320.046875 66.285156 C 319.808594 66.132812 320.089844 64.796875 320.449219 64.199219 C 321.046875 63.222656 321.742188 62.171875 322.664062 61.542969 C 326.84375 58.695312 331.042969 55.851562 335.398438 53.28125 C 336.992188 52.335938 339 52.042969 340.867188 51.683594 C 341.28125 51.609375 341.878906 52.554688 342.386719 53.03125 Z M 342.398438 53.019531 " fill-opacity="1" fill-rule="nonzero"/><path fill="#ffffff" d="M 348.859375 69.652344 C 347.695312 70.476562 346.621094 71.660156 345.285156 72.125 C 340.207031 73.917969 335.277344 75.9375 330.730469 78.910156 C 327.460938 81.046875 324.605469 81.386719 324.714844 79.996094 C 324.890625 77.855469 326.332031 76.554688 327.863281 75.445312 C 332.554688 72.039062 337.65625 69.367188 343.160156 67.578125 C 344.515625 67.132812 346.15625 67.347656 347.621094 67.542969 C 348.03125 67.597656 348.304688 68.671875 348.847656 69.652344 Z M 348.859375 69.652344 " fill-opacity="1" fill-rule="nonzero"/></svg>